# xmcd
#
# Track frame offsets: 
#        150
#        11875
#        24235
#        36010
#        47195
#        56672
#        68910
#        80532
#        92557
#        103550
#        114572
#        126650
#        137260
#        149180
#
# Disc length: 2112 seconds
#
# Revision: 4
# Processed by: cddbd v1.5.2PL0 Copyright (c) Steve Scherf et al.
# Submitted via: ExactAudioCopy v1.0b1
#
DISCID=c6083e0e
DTITLE=Bobby 'Blue' Bland - Two Steps From The Blues
DYEAR=1961
DGENRE=Blues
TTITLE0=Two Steps From The Blues (mono)
TTITLE1=Cry Cry Cry (mono)
TTITLE2=I'm Not Ashamed (mono)
TTITLE3=Don't Cry No More (mono)
TTITLE4=Lead Me On (mono)
TTITLE5=I Pity The Fool (mono)
TTITLE6=I've Just Got To Forget You (mono)
TTITLE7=Little Boy Blue (mono)
TTITLE8=St. James Infirmary (mono)
TTITLE9=I'll Take Care Of You (mono)
TTITLE10=I Don't Want No Woman (mono)
TTITLE11=I've Been Wrong So Long (mono)
TTITLE12=How Does A Cheatin' Woman Feel (mono)
TTITLE13=Close To You (mono)
EXTD=YEAR: 1961
EXTT0=
EXTT1=
EXTT2=
EXTT3=
EXTT4=
EXTT5=
EXTT6=
EXTT7=
EXTT8=
EXTT9=
EXTT10=
EXTT11=
EXTT12=
EXTT13=
PLAYORDER=
